<svg width="126" height="17" viewBox="0 0 126 17" fill="none" xmlns="http://www.w3.org/2000/svg">
<path d="M120.242 16.24C118.914 16.24 117.762 15.992 116.786 15.496C115.826 15 115.082 14.288 114.554 13.36C114.026 12.432 113.762 11.312 113.762 10C113.762 8.688 114.026 7.568 114.554 6.64C115.082 5.712 115.818 5 116.762 4.504C117.722 4.008 118.818 3.75999 120.05 3.75999C121.314 3.75999 122.386 4.008 123.266 4.504C124.162 4.984 124.842 5.656 125.306 6.52C125.77 7.368 126.002 8.344 126.002 9.448C126.002 9.736 125.994 10.024 125.978 10.312C125.962 10.6 125.938 10.84 125.906 11.032H116.402V8.848H124.106L122.162 9.592C122.162 8.632 121.986 7.896 121.634 7.384C121.298 6.87199 120.77 6.616 120.05 6.616C119.538 6.616 119.098 6.736 118.73 6.976C118.378 7.216 118.106 7.592 117.914 8.104C117.738 8.616 117.65 9.272 117.65 10.072C117.65 10.856 117.754 11.496 117.962 11.992C118.17 12.472 118.466 12.824 118.85 13.048C119.234 13.256 119.698 13.36 120.242 13.36C120.85 13.36 121.33 13.24 121.682 13C122.05 12.76 122.322 12.424 122.498 11.992L125.762 13.072C125.538 13.76 125.146 14.344 124.586 14.824C124.042 15.288 123.386 15.64 122.618 15.88C121.866 16.12 121.074 16.24 120.242 16.24Z" fill="#F2F2F2"/>
<path d="M106.343 16.24C105.015 16.24 103.863 15.992 102.887 15.496C101.927 15 101.183 14.288 100.655 13.36C100.127 12.432 99.8633 11.312 99.8633 10C99.8633 8.688 100.127 7.568 100.655 6.64C101.183 5.712 101.919 5 102.863 4.504C103.823 4.008 104.919 3.75999 106.151 3.75999C107.415 3.75999 108.487 4.008 109.367 4.504C110.263 4.984 110.943 5.656 111.407 6.52C111.871 7.368 112.103 8.344 112.103 9.448C112.103 9.736 112.095 10.024 112.079 10.312C112.063 10.6 112.039 10.84 112.007 11.032H102.503V8.848H110.207L108.263 9.592C108.263 8.632 108.087 7.896 107.735 7.384C107.399 6.87199 106.871 6.616 106.151 6.616C105.639 6.616 105.199 6.736 104.831 6.976C104.479 7.216 104.207 7.592 104.015 8.104C103.839 8.616 103.751 9.272 103.751 10.072C103.751 10.856 103.855 11.496 104.063 11.992C104.271 12.472 104.567 12.824 104.951 13.048C105.335 13.256 105.799 13.36 106.343 13.36C106.951 13.36 107.431 13.24 107.783 13C108.151 12.76 108.423 12.424 108.599 11.992L111.863 13.072C111.639 13.76 111.247 14.344 110.687 14.824C110.143 15.288 109.487 15.64 108.719 15.88C107.967 16.12 107.175 16.24 106.343 16.24Z" fill="#F2F2F2"/>
<path d="M90.6065 12.808H98.5505V16H86.4785V0.160004H90.6065V12.808Z" fill="#F2F2F2"/>
<path d="M71.5661 16.24C70.3661 16.24 69.2461 16.048 68.2061 15.664C67.1821 15.264 66.3341 14.696 65.6621 13.96L67.5821 11.704C67.9821 12.216 68.5101 12.648 69.1661 13C69.8381 13.336 70.5821 13.504 71.3981 13.504C71.8941 13.504 72.3021 13.432 72.6221 13.288C72.9421 13.144 73.1021 12.92 73.1021 12.616C73.1021 12.392 73.0221 12.216 72.8621 12.088C72.7021 11.944 72.3821 11.824 71.9021 11.728L70.2221 11.392C68.7181 11.088 67.6461 10.64 67.0061 10.048C66.3821 9.44 66.0701 8.648 66.0701 7.672C66.0701 7.016 66.2701 6.392 66.6701 5.8C67.0701 5.192 67.6861 4.704 68.5181 4.336C69.3501 3.952 70.4141 3.75999 71.7101 3.75999C72.9261 3.75999 73.9981 3.936 74.9261 4.288C75.8541 4.64 76.5901 5.152 77.1341 5.824L75.1901 8.032C74.8061 7.552 74.3101 7.176 73.7021 6.904C73.0941 6.632 72.4861 6.496 71.8781 6.496C71.4941 6.496 71.1661 6.536 70.8941 6.616C70.6381 6.68 70.4461 6.776 70.3181 6.904C70.1901 7.032 70.1261 7.192 70.1261 7.384C70.1261 7.592 70.2221 7.776 70.4141 7.936C70.6221 8.08 70.9981 8.208 71.5421 8.32L73.7261 8.752C74.9581 8.976 75.8461 9.384 76.3901 9.976C76.9341 10.568 77.2061 11.28 77.2061 12.112C77.2061 12.896 76.9981 13.6 76.5821 14.224C76.1661 14.848 75.5421 15.344 74.7101 15.712C73.8781 16.064 72.8301 16.24 71.5661 16.24Z" fill="#F2F2F2"/>
<path d="M58.4839 16.24C57.1559 16.24 56.0039 15.992 55.0279 15.496C54.0679 15 53.3239 14.288 52.7959 13.36C52.2679 12.432 52.0039 11.312 52.0039 10C52.0039 8.688 52.2679 7.568 52.7959 6.64C53.3239 5.712 54.0599 5 55.0039 4.504C55.9639 4.008 57.0599 3.75999 58.2919 3.75999C59.5559 3.75999 60.6279 4.008 61.5079 4.504C62.4039 4.984 63.0839 5.656 63.5479 6.52C64.0119 7.368 64.2439 8.344 64.2439 9.448C64.2439 9.736 64.2359 10.024 64.2199 10.312C64.2039 10.6 64.1799 10.84 64.1479 11.032H54.6439V8.848H62.3479L60.4039 9.592C60.4039 8.632 60.2279 7.896 59.8759 7.384C59.5399 6.87199 59.0119 6.616 58.2919 6.616C57.7799 6.616 57.3399 6.736 56.9719 6.976C56.6199 7.216 56.3479 7.592 56.1559 8.104C55.9799 8.616 55.8919 9.272 55.8919 10.072C55.8919 10.856 55.9959 11.496 56.2039 11.992C56.4119 12.472 56.7079 12.824 57.0919 13.048C57.4759 13.256 57.9399 13.36 58.4839 13.36C59.0919 13.36 59.5719 13.24 59.9239 13C60.2919 12.76 60.5639 12.424 60.7399 11.992L64.0039 13.072C63.7799 13.76 63.3879 14.344 62.8279 14.824C62.2839 15.288 61.6279 15.64 60.8599 15.88C60.1079 16.12 59.3159 16.24 58.4839 16.24Z" fill="#F2F2F2"/>
<path d="M30.0342 16V4H33.6822L33.8022 6.328C34.1862 5.48 34.7222 4.84 35.4102 4.408C36.1142 3.976 36.9222 3.75999 37.8342 3.75999C38.7302 3.75999 39.5062 3.96 40.1622 4.36C40.8182 4.76 41.3062 5.352 41.6262 6.136C41.8822 5.608 42.2102 5.168 42.6102 4.816C43.0262 4.464 43.4982 4.2 44.0262 4.024C44.5542 3.848 45.0982 3.75999 45.6582 3.75999C46.4582 3.75999 47.1622 3.92 47.7702 4.24C48.3782 4.544 48.8582 5.016 49.2102 5.656C49.5782 6.28 49.7622 7.064 49.7622 8.008V16H45.6822V8.944C45.6822 8.176 45.5302 7.64 45.2262 7.336C44.9382 7.032 44.5462 6.88 44.0502 6.88C43.6502 6.88 43.2822 6.984 42.9462 7.192C42.6262 7.384 42.3782 7.68 42.2022 8.08C42.0262 8.48 41.9382 8.984 41.9382 9.592V16H37.8582V8.944C37.8582 8.176 37.7062 7.64 37.4022 7.336C37.0982 7.032 36.7062 6.88 36.2262 6.88C35.8582 6.88 35.5062 6.976 35.1702 7.168C34.8502 7.36 34.5942 7.664 34.4022 8.08C34.2102 8.48 34.1142 9.008 34.1142 9.664V16H30.0342Z" fill="#F2F2F2"/>
<path d="M22.8315 8.392C22.8315 7.832 22.6715 7.392 22.3515 7.072C22.0475 6.736 21.6315 6.568 21.1035 6.568C20.5755 6.568 20.1195 6.704 19.7355 6.976C19.3675 7.232 19.1115 7.696 18.9675 8.368L15.5115 7.552C15.7355 6.4 16.3275 5.48 17.2875 4.792C18.2475 4.104 19.5995 3.75999 21.3435 3.75999C22.5115 3.75999 23.5035 3.936 24.3195 4.288C25.1515 4.624 25.7835 5.136 26.2155 5.824C26.6635 6.496 26.8875 7.328 26.8875 8.32V12.712C26.8875 13.336 27.1675 13.648 27.7275 13.648C28.0155 13.648 28.2475 13.616 28.4235 13.552L28.1835 15.88C27.7035 16.104 27.1195 16.216 26.4315 16.216C25.8075 16.216 25.2555 16.12 24.7755 15.928C24.2955 15.72 23.9195 15.416 23.6475 15.016C23.3755 14.6 23.2395 14.08 23.2395 13.456V13.312L23.6955 13.144C23.6955 13.832 23.4875 14.408 23.0715 14.872C22.6715 15.336 22.1435 15.68 21.4875 15.904C20.8475 16.128 20.1755 16.24 19.4715 16.24C18.6555 16.24 17.9435 16.112 17.3355 15.856C16.7275 15.6 16.2555 15.232 15.9195 14.752C15.5995 14.256 15.4395 13.648 15.4395 12.928C15.4395 12.064 15.6955 11.352 16.2075 10.792C16.7355 10.216 17.5595 9.816 18.6795 9.592L23.2155 8.656L23.1915 10.816L20.8875 11.296C20.4075 11.392 20.0475 11.536 19.8075 11.728C19.5835 11.904 19.4715 12.176 19.4715 12.544C19.4715 12.896 19.5995 13.16 19.8555 13.336C20.1115 13.512 20.4155 13.6 20.7675 13.6C21.0395 13.6 21.2955 13.56 21.5355 13.48C21.7915 13.4 22.0155 13.28 22.2075 13.12C22.3995 12.944 22.5515 12.728 22.6635 12.472C22.7755 12.216 22.8315 11.912 22.8315 11.56V8.392Z" fill="#F2F2F2"/>
<path d="M13.3675 0.160004V9.904C13.3675 11.904 12.7915 13.464 11.6395 14.584C10.4875 15.688 8.85552 16.24 6.74352 16.24C5.19152 16.24 3.94352 15.968 2.99952 15.424C2.05552 14.864 1.40752 14.096 1.05552 13.12C0.703519 12.128 0.631519 11 0.839518 9.736L4.87152 9.016C4.67952 10.472 4.74352 11.504 5.06352 12.112C5.39952 12.704 6.00752 13 6.88752 13C7.75152 13 8.35952 12.712 8.71152 12.136C9.06352 11.56 9.23952 10.672 9.23952 9.472V0.160004H13.3675Z" fill="#F2F2F2"/>
</svg>
